<?xml version="1.0" encoding="UTF-8"?>
<svg id="Layer_1" data-name="Layer 1" xmlns="http://www.w3.org/2000/svg" viewBox="0 0 612 424">
  <defs>
    <style>
      .cls-1 {
        fill: none;
      }

      .cls-2 {
        fill: #e2598b;
      }

      .cls-3 {
        fill: #f3aec7;
      }
    </style>
  </defs>
  <path class="cls-2" d="M75.29,194.51c-1.68-.27-3.18-.34-4.1-.21,0-.18-.03-.36-.07-.54.92-.07,2.37-.45,3.94-1.06,2.54-.99,4.44-2.21,4.24-2.73s-2.42-.15-4.95.84c-1.59.62-2.92,1.32-3.65,1.9-.1-.15-.2-.3-.33-.44.76-.53,1.83-1.59,2.88-2.91,1.71-2.14,2.75-4.17,2.33-4.52-.43-.35-2.17,1.1-3.88,3.24-1.07,1.33-1.87,2.62-2.22,3.49-.16-.09-.33-.15-.5-.2.4-.85.8-2.3,1.06-3.98.43-2.73.33-5.01-.21-5.1-.55-.09-1.34,2.05-1.76,4.78-.27,1.7-.33,3.23-.21,4.16-.18,0-.36.04-.54.07-.07-.94-.44-2.4-1.04-4-.97-2.58-2.18-4.51-2.69-4.31-.51.2-.15,2.45.82,5.03.61,1.61,1.31,2.97,1.87,3.71-.15.1-.3.21-.43.33-.53-.77-1.57-1.86-2.87-2.93-2.11-1.74-4.1-2.8-4.45-2.36-.35.43,1.08,2.2,3.19,3.94,1.31,1.08,2.58,1.9,3.43,2.26-.08.17-.15.34-.2.51-.84-.4-2.27-.81-3.92-1.08-2.68-.43-4.93-.34-5.02.21-.09.55,2.02,1.36,4.7,1.79,1.68.27,3.18.34,4.1.21,0,.18.03.36.07.54-.92.08-2.37.45-3.93,1.06-2.54.99-4.44,2.21-4.24,2.73.2.52,2.41.15,4.95-.84,1.59-.62,2.92-1.32,3.65-1.9.1.15.2.3.33.44-.76.53-1.83,1.59-2.89,2.91-1.71,2.14-2.75,4.17-2.32,4.52.43.35,2.16-1.1,3.88-3.24,1.06-1.33,1.87-2.62,2.22-3.49.16.09.33.15.5.21-.4.85-.8,2.3-1.06,3.98-.43,2.73-.33,5.01.21,5.1.55.09,1.33-2.05,1.76-4.78.27-1.7.33-3.23.21-4.16.18,0,.36-.04.54-.07.07.94.44,2.4,1.04,4,.97,2.58,2.18,4.51,2.69,4.31.52-.2.15-2.45-.82-5.03-.61-1.61-1.31-2.97-1.87-3.71.15-.1.3-.21.43-.33.53.77,1.57,1.86,2.87,2.93,2.11,1.74,4.1,2.8,4.45,2.36.35-.43-1.08-2.2-3.19-3.94-1.31-1.08-2.58-1.9-3.43-2.26.08-.16.15-.34.2-.51.84.4,2.27.81,3.92,1.08,2.68.43,4.93.34,5.02-.22.09-.55-2.02-1.36-4.7-1.79"/>
  <path class="cls-2" d="M338.44,127.69c-1.68-.27-3.18-.34-4.1-.21,0-.18-.03-.36-.07-.54.92-.08,2.37-.45,3.93-1.06,2.54-.99,4.44-2.21,4.24-2.73-.2-.52-2.41-.15-4.95.84-1.59.62-2.92,1.32-3.65,1.9-.1-.15-.2-.3-.33-.44.76-.53,1.83-1.59,2.89-2.91,1.71-2.14,2.75-4.17,2.32-4.52-.43-.35-2.16,1.1-3.88,3.24-1.07,1.33-1.87,2.62-2.22,3.49-.16-.09-.33-.15-.5-.2.4-.85.8-2.3,1.06-3.98.43-2.73.33-5.01-.21-5.1-.55-.09-1.33,2.05-1.76,4.78-.27,1.7-.33,3.23-.21,4.16-.18,0-.36.04-.54.07-.07-.94-.44-2.4-1.04-4-.97-2.58-2.18-4.51-2.69-4.31-.52.2-.15,2.45.82,5.03.61,1.61,1.3,2.97,1.87,3.71-.15.1-.29.21-.43.33-.52-.77-1.57-1.86-2.87-2.93-2.11-1.74-4.1-2.8-4.45-2.36s1.08,2.2,3.19,3.94c1.31,1.08,2.58,1.9,3.43,2.26-.08.17-.15.34-.2.51-.84-.4-2.27-.81-3.92-1.08-2.68-.43-4.93-.34-5.02.21-.09.55,2.02,1.36,4.7,1.79,1.68.27,3.18.34,4.1.21,0,.18.03.36.07.54-.92.08-2.37.45-3.93,1.06-2.54.99-4.44,2.21-4.24,2.73.2.52,2.41.15,4.95-.84,1.59-.62,2.92-1.33,3.65-1.9.1.15.2.3.33.44-.76.53-1.83,1.59-2.89,2.91-1.71,2.14-2.75,4.17-2.33,4.52.43.35,2.17-1.1,3.88-3.24,1.07-1.33,1.87-2.62,2.22-3.49.16.09.33.15.5.21-.4.85-.8,2.3-1.06,3.98-.43,2.73-.33,5.01.21,5.1.55.09,1.33-2.05,1.76-4.77.27-1.7.33-3.23.21-4.16.18,0,.36-.04.54-.07.07.94.44,2.4,1.04,4,.97,2.58,2.18,4.51,2.69,4.31.52-.2.15-2.45-.82-5.03-.61-1.61-1.3-2.97-1.87-3.71.15-.1.29-.21.43-.33.52.77,1.57,1.86,2.87,2.93,2.11,1.74,4.1,2.8,4.45,2.36s-1.08-2.2-3.19-3.94c-1.31-1.08-2.58-1.9-3.43-2.26.08-.17.15-.34.2-.51.84.4,2.27.81,3.92,1.08,2.68.43,4.93.34,5.02-.21.09-.55-2.02-1.36-4.7-1.79"/>
  <path class="cls-2" d="M342.32,362.3c-1.89-.31-3.6-.38-4.63-.24,0-.21-.04-.41-.08-.62,1.04-.08,2.67-.51,4.45-1.2,2.87-1.11,5.01-2.5,4.79-3.09-.22-.59-2.73-.17-5.6.95-1.79.7-3.3,1.5-4.13,2.15-.11-.17-.23-.34-.37-.49.86-.6,2.07-1.8,3.26-3.29,1.94-2.42,3.11-4.71,2.63-5.11-.49-.4-2.45,1.24-4.38,3.66-1.2,1.51-2.11,2.96-2.51,3.94-.18-.1-.37-.17-.57-.23.45-.96.9-2.6,1.2-4.5.48-3.08.38-5.66-.24-5.76-.62-.1-1.51,2.32-1.99,5.4-.3,1.92-.38,3.65-.24,4.7-.2,0-.4.04-.61.08-.08-1.06-.5-2.72-1.18-4.52-1.1-2.91-2.46-5.09-3.04-4.87-.58.23-.17,2.77.93,5.69.69,1.82,1.48,3.35,2.11,4.19-.17.11-.33.23-.48.38-.59-.88-1.77-2.1-3.24-3.31-2.39-1.97-4.64-3.16-5.03-2.67-.39.49,1.22,2.49,3.6,4.45,1.48,1.22,2.91,2.15,3.88,2.55-.1.19-.17.38-.23.58-.94-.46-2.56-.92-4.43-1.22-3.03-.49-5.57-.38-5.67.24-.1.63,2.28,1.53,5.31,2.02,1.89.31,3.6.38,4.63.24.01.21.04.41.08.61-1.04.09-2.67.51-4.45,1.2-2.87,1.11-5.01,2.5-4.79,3.09.22.59,2.73.17,5.6-.95,1.79-.7,3.3-1.5,4.13-2.14.11.17.23.34.37.49-.86.6-2.07,1.8-3.26,3.29-1.94,2.42-3.11,4.71-2.63,5.11.49.4,2.45-1.24,4.38-3.66,1.2-1.51,2.11-2.96,2.51-3.94.18.1.37.17.57.23-.45.96-.9,2.6-1.2,4.5-.49,3.08-.38,5.66.24,5.76s1.51-2.32,1.99-5.4c.3-1.92.38-3.65.24-4.7.21,0,.41-.04.61-.08.08,1.06.5,2.72,1.18,4.52,1.1,2.91,2.46,5.09,3.04,4.87.58-.23.17-2.77-.93-5.69-.69-1.82-1.48-3.35-2.11-4.19.17-.11.33-.23.49-.38.59.87,1.77,2.1,3.24,3.31,2.39,1.97,4.64,3.16,5.03,2.67.39-.49-1.22-2.48-3.61-4.45-1.48-1.22-2.91-2.15-3.88-2.55.1-.19.17-.38.23-.58.95.46,2.56.92,4.43,1.22,3.03.49,5.57.38,5.67-.24.1-.63-2.28-1.53-5.31-2.02"/>
  <path class="cls-2" d="M57.4,164.09c-3.23-.31-7.73.01-11.26.71-.16.03-.31.07-.47.1.19-.48.38-.95.57-1.39,1.67-3.96,2.76-6.89,3.1-9.74.11-.94-.93-1.47-1.76-.89-2.67,1.87-5.92,5.06-8.18,7.89-.1.13-.2.25-.29.38-.15-.49-.31-.98-.45-1.43-1.23-4.12-2.25-7.08-3.79-9.49-.51-.8-1.64-.52-1.91.46-.87,3.18-1.33,7.74-1.27,11.39,0,.16,0,.32.02.48-.43-.28-.86-.54-1.25-.81-3.55-2.36-6.2-3.96-8.91-4.8-.9-.28-1.59.67-1.17,1.6,1.35,3,3.88,6.8,6.23,9.55.1.12.21.24.32.36-.51.07-1,.14-1.47.2-4.21.51-7.25,1.02-9.86,2.14-.86.37-.79,1.55.12,1.99,2.93,1.42,7.27,2.67,10.82,3.25.16.02.31.05.47.07-.34.38-.68.76-1,1.11-2.9,3.14-4.91,5.52-6.2,8.08-.42.85.38,1.7,1.35,1.45,3.14-.82,7.26-2.7,10.34-4.57.14-.08.27-.17.4-.26-.02.52-.04,1.03-.06,1.5-.24,4.3-.27,7.43.36,10.23.21.93,1.37,1.06,1.95.23,1.88-2.68,3.86-6.81,5.03-10.26.05-.15.1-.31.15-.46.31.41.62.81.9,1.19,2.54,3.45,4.49,5.87,6.75,7.6.75.57,1.72-.08,1.64-1.1-.25-3.29-1.35-7.73-2.64-11.14-.06-.15-.12-.3-.18-.45.5.11.99.21,1.45.32,4.13.98,7.16,1.56,9.98,1.41.93-.05,1.26-1.18.56-1.91-2.27-2.35-5.93-5.04-9.07-6.81-.14-.08-.28-.15-.42-.23.45-.24.89-.48,1.31-.7,3.79-1.94,6.47-3.48,8.54-5.44.68-.65.22-1.73-.78-1.83"/>
  <path class="cls-2" d="M587.06,132.96c-2.42-.24-5.78,0-8.42.53-.12.02-.23.05-.35.08.15-.36.28-.71.42-1.04,1.25-2.96,2.06-5.15,2.32-7.29.09-.71-.69-1.1-1.31-.67-2,1.4-4.42,3.78-6.12,5.9-.08.09-.15.19-.22.28-.11-.37-.23-.73-.34-1.07-.92-3.09-1.68-5.3-2.83-7.1-.38-.6-1.23-.39-1.43.35-.65,2.38-.99,5.79-.95,8.52,0,.12,0,.24.01.36-.32-.21-.64-.41-.93-.6-2.66-1.76-4.64-2.96-6.66-3.59-.67-.21-1.19.5-.87,1.2,1.01,2.24,2.9,5.08,4.66,7.14.08.09.16.18.24.27-.38.05-.75.11-1.1.15-3.15.38-5.43.76-7.37,1.6-.64.28-.59,1.16.09,1.49,2.19,1.06,5.44,2,8.09,2.43.12.02.24.04.35.05-.26.29-.51.57-.75.83-2.17,2.35-3.67,4.13-4.64,6.04-.32.63.28,1.27,1.01,1.08,2.35-.62,5.43-2.02,7.74-3.42.1-.06.2-.13.3-.19-.02.39-.03.77-.05,1.12-.18,3.22-.2,5.56.27,7.65.16.69,1.02.79,1.46.17,1.41-2.01,2.88-5.09,3.76-7.67.04-.11.07-.23.11-.34.23.31.47.6.68.89,1.9,2.58,3.36,4.39,5.05,5.69.56.43,1.28-.06,1.22-.82-.19-2.46-1.01-5.78-1.97-8.33-.04-.11-.09-.22-.13-.34.37.08.74.16,1.08.24,3.09.74,5.36,1.17,7.47,1.06.7-.04.95-.88.42-1.43-1.7-1.76-4.44-3.77-6.79-5.09-.1-.06-.21-.11-.31-.17.34-.18.67-.36.98-.52,2.83-1.45,4.84-2.6,6.39-4.07.51-.48.17-1.29-.58-1.37"/>
  <path class="cls-2" d="M342.95,380.47c-1.01-.1-2.41,0-3.5.22-.05,0-.1.02-.14.03.06-.15.12-.3.18-.43.52-1.23.86-2.15.97-3.03.04-.29-.29-.46-.55-.28-.83.58-1.84,1.57-2.55,2.46-.03.04-.06.08-.09.12-.05-.15-.1-.3-.14-.45-.38-1.28-.7-2.2-1.18-2.95-.16-.25-.51-.16-.59.14-.27.99-.42,2.41-.4,3.54,0,.05,0,.1,0,.15-.13-.09-.27-.17-.39-.25-1.11-.73-1.93-1.23-2.77-1.49-.28-.09-.49.21-.36.5.42.93,1.21,2.11,1.94,2.97.03.04.07.07.1.11-.16.02-.31.05-.46.06-1.31.16-2.26.32-3.07.67-.27.12-.25.48.04.62.91.44,2.26.83,3.37,1.01.05,0,.1.01.15.02-.11.12-.21.24-.31.35-.9.98-1.53,1.72-1.93,2.51-.13.26.12.53.42.45.98-.26,2.26-.84,3.22-1.42.04-.03.08-.05.13-.08,0,.16-.01.32-.02.47-.07,1.34-.09,2.31.11,3.18.07.29.43.33.61.07.59-.84,1.2-2.12,1.56-3.19.02-.05.03-.09.05-.14.1.13.19.25.28.37.79,1.07,1.4,1.83,2.1,2.37.23.18.53-.02.51-.34-.08-1.02-.42-2.41-.82-3.47-.02-.05-.04-.09-.06-.14.15.03.31.07.45.1,1.29.31,2.23.49,3.11.44.29-.02.39-.37.17-.59-.71-.73-1.85-1.57-2.82-2.12-.04-.03-.09-.05-.13-.07.14-.07.28-.15.41-.22,1.18-.61,2.02-1.08,2.66-1.69.21-.2.07-.54-.24-.57"/>
  <path class="cls-2" d="M333.85,92.47c-.4.06-1.73.22-3.24.57,1.33-.85,2.4-1.71,2.73-1.96,1.99-1.48.41-3.67-1.11-5.23-1.53-1.54-3.72-3.11-5.18-1.09-.24.33-1.07,1.4-1.89,2.73.36-1.56.51-2.93.57-3.34.37-2.48-2.27-2.89-4.42-2.9-2.15,0-4.8.47-4.42,2.95.06.41.21,1.76.56,3.3-.83-1.36-1.68-2.44-1.92-2.77-1.46-2.02-3.62-.41-5.14,1.13-1.52,1.55-3.07,3.78-1.07,5.26.33.24,1.38,1.09,2.69,1.92-1.53-.36-2.89-.52-3.29-.58-2.44-.38-2.84,2.31-2.85,4.49,0,2.19.46,4.87,2.9,4.49.4-.06,1.73-.22,3.24-.57-1.33.85-2.4,1.71-2.73,1.96-1.99,1.48-.41,3.67,1.11,5.22,1.53,1.54,3.72,3.11,5.18,1.09.24-.33,1.08-1.4,1.9-2.73-.36,1.56-.51,2.93-.57,3.34-.37,2.48,2.27,2.89,4.42,2.9,2.15,0,4.8-.47,4.42-2.95-.06-.41-.21-1.76-.56-3.3.83,1.36,1.68,2.44,1.92,2.77,1.46,2.02,3.62.41,5.14-1.13,1.52-1.55,3.07-3.78,1.08-5.26-.33-.24-1.38-1.09-2.69-1.93,1.53.36,2.89.52,3.29.58,2.44.38,2.84-2.31,2.85-4.49,0-2.19-.46-4.87-2.9-4.49"/>
  <path class="cls-2" d="M51.81,201.97c-.18.03-.77.1-1.44.25.59-.37,1.06-.76,1.21-.87.88-.66.18-1.63-.49-2.31-.68-.68-1.65-1.38-2.29-.48-.11.15-.48.62-.84,1.21.16-.69.22-1.3.25-1.48.17-1.1-1-1.28-1.96-1.28-.95,0-2.12.21-1.96,1.31.03.18.1.78.25,1.46-.37-.6-.74-1.08-.85-1.23-.65-.89-1.6-.18-2.28.5-.67.69-1.36,1.67-.48,2.33.14.11.61.48,1.19.85-.68-.16-1.28-.23-1.46-.26-1.08-.17-1.26,1.02-1.26,1.99,0,.97.2,2.16,1.28,1.99.18-.03.77-.1,1.44-.25-.59.37-1.06.76-1.21.87-.88.66-.18,1.63.49,2.31.68.68,1.65,1.38,2.29.48.11-.15.48-.62.84-1.21-.16.69-.23,1.3-.25,1.48-.16,1.1,1.01,1.28,1.96,1.28.95,0,2.12-.21,1.96-1.3-.03-.18-.09-.78-.25-1.46.37.6.75,1.08.85,1.23.65.89,1.6.18,2.28-.5.67-.69,1.36-1.67.48-2.33-.14-.11-.61-.48-1.19-.85.68.16,1.28.23,1.46.26,1.08.17,1.26-1.02,1.26-1.99,0-.97-.21-2.16-1.28-1.99"/>
  <path class="cls-2" d="M502.34,319.05c-.2.03-.87.11-1.62.29.67-.42,1.2-.86,1.37-.98,1-.74.2-1.84-.56-2.62-.77-.77-1.86-1.56-2.6-.55-.12.17-.54.7-.95,1.37.18-.78.25-1.47.28-1.67.19-1.24-1.14-1.45-2.21-1.45-1.08,0-2.4.24-2.22,1.48.03.2.11.88.28,1.65-.42-.68-.84-1.22-.96-1.39-.73-1.01-1.81-.21-2.58.57-.76.78-1.54,1.89-.54,2.64.16.12.69.55,1.35.96-.77-.18-1.45-.26-1.65-.29-1.22-.19-1.42,1.16-1.43,2.25,0,1.1.23,2.44,1.45,2.25.2-.03.87-.11,1.62-.29-.67.42-1.2.86-1.37.98-1,.74-.2,1.84.56,2.62.76.77,1.86,1.56,2.59.55.12-.17.54-.7.95-1.37-.18.78-.26,1.47-.29,1.67-.19,1.24,1.14,1.45,2.22,1.45,1.08,0,2.4-.24,2.21-1.48-.03-.2-.11-.88-.28-1.65.42.68.84,1.22.96,1.39.73,1.01,1.81.21,2.58-.57.76-.78,1.54-1.89.54-2.64-.16-.12-.69-.55-1.35-.96.77.18,1.45.26,1.65.29,1.22.19,1.42-1.16,1.43-2.25,0-1.1-.23-2.44-1.45-2.25"/>
  <path class="cls-2" d="M350.06,74.67c-.2.03-.87.11-1.62.29.67-.42,1.2-.86,1.37-.98,1-.74.2-1.84-.56-2.62-.77-.77-1.86-1.56-2.6-.55-.12.17-.54.7-.95,1.37.18-.78.25-1.47.28-1.68.19-1.24-1.14-1.45-2.22-1.45-1.08,0-2.4.23-2.22,1.48.03.2.11.88.28,1.65-.42-.68-.84-1.22-.96-1.39-.73-1.01-1.81-.21-2.58.57-.76.78-1.54,1.89-.54,2.64.16.12.69.55,1.35.96-.77-.18-1.45-.26-1.65-.29-1.22-.19-1.42,1.16-1.43,2.25,0,1.1.23,2.44,1.45,2.25.2-.03.87-.11,1.62-.29-.67.42-1.2.86-1.37.98-1,.74-.2,1.84.56,2.62.76.77,1.86,1.56,2.59.55.12-.17.54-.7.95-1.37-.18.78-.26,1.47-.29,1.67-.19,1.24,1.14,1.45,2.22,1.45,1.08,0,2.4-.24,2.22-1.48-.03-.2-.11-.88-.28-1.65.42.68.84,1.22.96,1.39.73,1.01,1.81.21,2.58-.57.76-.78,1.54-1.89.54-2.64-.16-.12-.69-.55-1.35-.96.77.18,1.45.26,1.65.29,1.22.19,1.42-1.15,1.43-2.25,0-1.1-.23-2.44-1.45-2.25"/>
  <path class="cls-2" d="M597,162.69c-.27.04-1.15.14-2.15.38.88-.56,1.59-1.13,1.81-1.29,1.32-.98.27-2.43-.74-3.46-1.01-1.02-2.46-2.06-3.43-.72-.16.22-.71.93-1.26,1.81.23-1.03.34-1.94.38-2.21.25-1.64-1.5-1.91-2.93-1.92-1.43,0-3.18.31-2.93,1.95.04.27.14,1.17.37,2.18-.55-.9-1.11-1.62-1.27-1.84-.97-1.34-2.4-.27-3.41.75-1.01,1.03-2.03,2.5-.71,3.49.22.16.91.72,1.78,1.27-1.01-.24-1.91-.34-2.18-.38-1.62-.25-1.88,1.53-1.89,2.98,0,1.45.31,3.23,1.92,2.98.27-.04,1.15-.14,2.15-.38-.88.56-1.59,1.13-1.81,1.29-1.32.98-.27,2.43.74,3.46,1.01,1.02,2.46,2.06,3.43.72.16-.22.71-.93,1.26-1.81-.23,1.03-.34,1.94-.38,2.21-.25,1.64,1.5,1.91,2.93,1.92,1.43,0,3.18-.31,2.93-1.95-.04-.27-.14-1.17-.37-2.18.55.9,1.11,1.62,1.27,1.84.97,1.34,2.39.27,3.41-.75,1-1.03,2.03-2.5.71-3.49-.22-.16-.91-.72-1.78-1.27,1.02.24,1.91.34,2.18.38,1.62.25,1.88-1.53,1.89-2.98,0-1.45-.31-3.23-1.92-2.98"/>
  <path class="cls-3" d="M226.03,195.86c2.39-2.33,4.03-5.53,4.91-9.6l6.95-33.24c.05-.26.09-.52.07-.78-.09-1.15-.57-2.28-1.45-3.4-.98-1.24-2.49-1.86-4.54-1.86-3.91,0-7.42,2.31-10.54,6.92-3.13,4.61-5.57,10.17-7.32,16.66-1.76,6.5-2.64,12.23-2.64,17.18s.71,8.13,2.12,9.52c1.41,1.39,3.15,2.08,5.2,2.08,2.44,0,4.86-1.17,7.25-3.5M195.34,207.99c-3.71-3.87-5.57-9.92-5.57-18.15,0-7.34,1.44-15.05,4.32-23.14,2.88-8.08,7.18-14.93,12.89-20.53,5.71-5.6,12.52-8.41,20.43-8.41,4,0,6.95.74,8.93,2.08,4.33,2.92,4.26,8.29,4.26,8.29,0,0,0-.4.59-4.29,1.25-8.2,19.86-7.58,18.24,1.6-4.43,25.16-8.01,43.65-8.01,43.65-.39,1.49-.58,3.08-.58,4.76,0,4.27,2,6.4,6,6.4,2.73,0,5.1-1.29,7.1-3.87,1.68-2.17,3.08-4.91,4.17-8.2.38-1.15,1.47-1.91,2.67-1.91,1.99,0,3.38,2.05,2.65,3.93-3.34,8.58-7.33,14.54-11.98,17.87-5.32,3.82-10.67,5.73-16.04,5.73-4.1,0-7.4-1.16-9.89-3.5-1.38-1.29-2.46-2.92-3.23-4.87-.78-2-3.28-2.51-4.7-.92-1.88,2.12-3.88,3.95-5.99,5.49-3.47,2.53-7.59,3.79-12.38,3.79-5.57,0-10.21-1.93-13.91-5.8"/>
  <path class="cls-3" d="M286.46,250.54l1.73-5.88c.79-2.69-2.38-4.74-4.46-2.88-7.18,6.42-11.87,12.29-11.87,16.03,0,1.29.44,2.43,1.32,3.42.88.99,2.1,1.49,3.66,1.49,4.47,0,7.88-6.81,9.62-12.18M268.49,270.61c-3.13-2.48-4.38-6.06-4.69-10.71-.7-10.56,19.15-25.08,28.67-30.87.57-.35,1-.89,1.21-1.53l4.22-13.06c.77-2.38-1.72-4.52-3.89-3.32-.61.34-1.23.64-1.85.89-2.93,1.19-5.91,1.79-8.93,1.79-4.69,0-8.47-1.49-11.35-4.46-2.88-2.98-4.32-7.44-4.32-13.39,0-2.44.38-5.62,1.14-9.51.02-.1.04-.2.07-.3.62-1.99,7.63-24.67,11.05-40.69,2.19-10.26,20.75-7.2,18.82,1.15-3.25,14.09-9.41,42.51-9.41,42.51-.29,1.19-.44,2.43-.44,3.72,0,4.37,1.46,6.55,4.39,6.55,2.54,0,4.78-1.12,6.74-3.35,1.95-2.23,3.52-5.18,4.69-8.85,0,0,8.17-27.33,12.52-41.73,2.92-9.64,9.26-1.05,15.21-1.23,3.93-.12,7.76-4.64,7.44-2.64-.53,3.44-5.12,5.06-6.88,10.57-5.27,16.53-12.28,44.45-16.14,57.34-.81,2.71,2.58,4.65,4.43,2.52,6.98-8.03,15.42-18.82,18.06-24.17.47-.95,1.41-1.56,2.46-1.56,2.14,0,3.44,2.35,2.36,4.22-6.27,10.79-24.07,30.72-31.26,36.91-.42.37-.72.85-.87,1.4-1.05,3.96-5.38,20.24-5.38,20.24-1.96,9.62-5.32,16.24-10.11,19.86-4.79,3.62-10.2,5.43-16.26,5.43-4.69,0-8.59-1.24-11.72-3.72"/>
  <path class="cls-3" d="M410.58,171.83c3.27-2.38,5.91-5.4,7.91-9.08,2-3.67,3-7.54,3-11.6s-1.22-6.1-3.66-6.1c-3.52,0-6.96,3.12-10.33,9.37-2.91,5.39-5.1,11.41-6.59,18.06-.37,1.64,1.08,3.12,2.69,2.71,2.41-.6,4.74-1.73,6.98-3.36M383.11,208.06c-4.01-3.82-6.01-9.79-6.01-17.93,0-6.84,1.32-14.38,3.96-22.62,2.64-8.23,6.93-15.35,12.89-21.35,5.96-6,13.52-9,22.7-9,10.74,0,16.11,4.76,16.11,14.28,0,5.56-1.56,10.66-4.69,15.32-3.13,4.66-7.27,8.41-12.45,11.23-4.62,2.52-9.51,4.08-14.67,4.66-1.08.12-1.94.99-2.01,2.1-.11,1.92-.17,3.26-.17,4.02,0,4.86.83,8.16,2.49,9.89,1.66,1.74,4.34,2.6,8.06,2.6,5.27,0,9.79-1.24,13.55-3.72,3.57-2.36,7.48-5.88,11.72-10.57.42-.46,1.01-.74,1.63-.74,1.76,0,2.82,2,1.85,3.49-10.44,16.03-23.15,24.04-38.11,24.04-7.23,0-12.84-1.91-16.84-5.73"/>
  <path class="cls-3" d="M466.82,171.83c3.27-2.38,5.91-5.4,7.91-9.08,2-3.67,3-7.54,3-11.6s-1.22-6.1-3.66-6.1c-3.52,0-6.96,3.12-10.33,9.37-2.91,5.39-5.1,11.41-6.59,18.06-.37,1.64,1.08,3.12,2.69,2.71,2.41-.6,4.73-1.73,6.98-3.36M439.36,208.06c-4.01-3.82-6.01-9.79-6.01-17.93,0-6.84,1.32-14.38,3.95-22.62,2.64-8.23,6.93-15.35,12.89-21.35,5.95-6,13.52-9,22.7-9,10.74,0,16.11,4.76,16.11,14.28,0,5.56-1.56,10.66-4.69,15.32-3.13,4.66-7.27,8.41-12.45,11.23-4.62,2.52-9.51,4.08-14.67,4.66-1.08.12-1.94.99-2.01,2.1-.11,1.92-.17,3.26-.17,4.02,0,4.86.83,8.16,2.49,9.89,1.66,1.74,4.34,2.6,8.06,2.6,5.27,0,9.79-1.24,13.55-3.72,3.57-2.36,7.48-5.88,11.72-10.57.42-.46,1.01-.74,1.63-.74,1.76,0,2.82,2,1.85,3.49-10.45,16.03-23.15,24.04-38.11,24.04-7.23,0-12.84-1.91-16.84-5.73"/>
  <path class="cls-3" d="M387.56,65.54c8.17,7.56,3.9,30.6.45,40.94-2.68,8.04-6.88,16.11-12.95,22.1-1.76,1.73-4.69.18-4.34-2.28,2.57-18.08,10.21-66.89,16.84-60.76M368.61,142.83c.14-.78.63-1.44,1.31-1.84,10.05-5.8,16.82-18.73,21.03-29.35,4.44-11.2,5.94-28.31,5.22-36.05-1.52-16.38-23.7-33.46-31.24-11.38-10.31,30.22-25.04,122.05-25.04,122.05-.78,3.97-1.17,7.19-1.17,9.67,0,5.95,1.44,10.42,4.32,13.39,2.88,2.98,6.66,4.46,11.35,4.46,5.57,0,11.18-1.91,16.84-5.73,5.01-3.37,9.21-9.44,12.61-18.2.67-1.72-.59-3.59-2.41-3.59h-.56c-1.08,0-2.05.68-2.42,1.71-1.09,3.1-2.67,5.68-4.74,7.74-2.44,2.43-5.08,3.64-7.91,3.64-2.15,0-3.69-.42-4.61-1.26-.93-.84-1.39-2.25-1.39-4.24,0-1.68.19-3.27.59-4.76l8.2-46.26Z"/>
  <path class="cls-3" d="M467.4,225.56c8.17,6.19,3.9,25.05.46,33.53-2.59,6.37-6.6,12.77-12.37,17.61-2.06,1.74-5.15-.13-4.68-2.81,2.79-15.78,10.16-53.2,16.59-48.33M448.37,289.77c.2-.9.81-1.62,1.63-2.02,9.93-4.83,16.64-15.8,20.82-24.44,4.44-9.17,5.94-23.18,5.22-29.52-1.52-13.42-23.7-27.4-31.24-9.32-10.31,24.74-25.04,99.94-25.04,99.94-.78,3.25-1.17,5.89-1.17,7.92,0,4.87,1.44,8.53,4.32,10.96,2.88,2.44,6.68,3.3,11.35,3.66,27.89,2.1,37.69-38.13,42.01-52.62.56-1.89-.83-3.79-2.77-3.79-1.27,0-2.39.83-2.76,2.06-2.32,7.61-9.6,31.61-17.14,39.55-2.17,2.29-5.08,2.99-7.91,2.99-2.15,0-3.69-.35-4.61-1.04-.93-.69-1.39-1.85-1.39-3.47,0-1.38.19-2.68.59-3.9l8.11-36.96Z"/>
  <path class="cls-3" d="M510.93,225.56c8.17,6.19,3.9,25.06.46,33.53-2.16,5.3-5.3,10.62-9.61,15.05-2.78,2.86-7.54.27-6.82-3.68,3.15-17.16,9.97-49.44,15.97-44.9M491.77,290.33c.26-1.19,1.03-2.21,2.11-2.75,9.73-4.92,16.33-15.73,20.46-24.26,4.44-9.17,5.94-23.18,5.22-29.52-1.52-13.41-23.7-27.4-31.24-9.32-10.31,24.74-25.04,99.94-25.04,99.94-.78,3.25-1.17,5.89-1.17,7.92,0,4.87,1.44,8.53,4.32,10.96,2.88,2.44,6.67,3.81,11.35,3.66,11.52-.37,16.85-5.75,18.94-8.77,4.24-6.14,3.73-8.24-2.48-3.3-4.9,3.9-11.07,5.02-11.04-4.26,0-1.01.29-2.21.59-3.9l7.99-36.41Z"/>
  <path class="cls-3" d="M305.71,341.26c-3.99-3.8-5.98-9.75-5.98-17.85,0-6.81,1.34-14.31,4.01-22.51,2.67-8.19,6.95-15.28,12.83-21.25,5.88-5.97,13.34-8.96,22.38-8.96,5.83,0,9.99,1.29,12.46,3.85,2.48,2.57,3.61,5.83,3.72,9.77.29,10.16-9.79,14.45-15.9,8.96-1.35-1.21-1.46-3.6,1.06-2.16,5.39,3.08,11.08-.5,10.87-5.88-.07-1.87-2-9-11.19-6.69-2.83.71-5.83,2.42-8.75,7.26-2.92,4.84-5.3,10.72-7.14,17.62-1.85,6.91-2.77,13.13-2.77,18.66,0,4.84.83,8.12,2.48,9.85,1.65,1.73,4.32,2.59,8.02,2.59,5.25,0,9.74-1.23,13.49-3.7,3.74-2.47,7.85-6.22,12.32-11.25h4.96c-10.79,18.27-24.15,27.4-40.09,27.4-7.19,0-12.78-1.9-16.77-5.7"/>
  <path class="cls-3" d="M388.94,329.26c2.33-2.71,4.38-6.42,6.12-11.11,1.75-4.69,3.01-9.9,3.79-15.62-2.62-.59-3.94-2.67-3.94-6.22,0-4.05,1.5-6.71,4.52-8-.2-3.26-.68-5.5-1.46-6.74-.78-1.23-2.14-1.85-4.08-1.85-3.21,0-6.32,2.37-9.33,7.11-3.01,4.74-5.44,10.42-7.29,17.03-1.85,6.62-2.77,12.44-2.77,17.48,0,4.74.53,7.92,1.61,9.55,1.07,1.63,3.01,2.44,5.83,2.44,2.33,0,4.67-1.35,7-4.07M359.06,341.03c-4.18-3.75-6.27-9.67-6.27-17.77,0-6.71,1.36-14.17,4.08-22.36,2.72-8.19,7.09-15.28,13.12-21.25,6.02-5.97,13.61-8.96,22.74-8.96,12.44,0,18.66,7.9,18.66,23.7v.15c.29.1.83.15,1.6.15,3.21,0,6.9-.86,11.08-2.59,4.18-1.73,7.97-3.83,11.37-6.3l1.31,4c-2.82,3.06-6.49,5.65-11.01,7.78-4.52,2.12-9.45,3.63-14.8,4.52-.78,8.99-2.77,16.84-5.98,23.55-3.21,6.72-7.34,11.9-12.39,15.55-5.05,3.65-10.55,5.48-16.47,5.48-7.2,0-12.88-1.88-17.06-5.63"/>
  <path class="cls-3" d="M221.62,360.71c-6.23-2.9-11.04-6.94-14.41-12.15-3.38-5.2-5.06-11.23-5.06-18.08,0-5.79,1.2-11.06,3.6-15.8,2.4-4.74,5.65-8.49,9.74-11.26,4.09-2.77,8.6-4.15,13.54-4.15,4.54,0,8.37,1.15,11.49,3.46,1.04.77,1.95,1.64,2.73,2.6,2.21,2.75.48,6.86-2.95,7.54-4,.79-7.36,2.41-10.1,4.88-4.03,3.62-6.04,8.53-6.04,14.72,0,5.67,1.68,10.21,5.06,13.63,3.38,3.43,7.86,5.14,13.44,5.14,6.88,0,12.56-2.34,17.04-7.01,4.48-4.67,6.72-10.57,6.72-17.68,0-6.19-1.69-12.05-5.06-17.58-3.38-5.53-7.67-8.01-15.19-20.15-44.01-71.03,54.78-84.91,54.78-50.04,0,8.52-3.84,9.36-3.87,6.07-.23-29.04-79.98-5.79-25.6,32.21,6.27,4.38,9.38,9.01,12.56,13.09,3.18,4.08,5.91,7.26,8.18,12.6,2.27,5.33,3.41,11.1,3.41,17.29,0,8.43-2.31,16.07-6.91,22.91-4.61,6.85-10.91,12.25-18.89,16.2-7.99,3.95-16.85,5.93-26.58,5.93-8.18,0-15.39-1.45-21.62-4.35"/>
  <path class="cls-3" d="M360.94,27.48c-12.69-5.54-27.44-6.75-41.28-5.8-61.73,4.27-109.57,36.48-135.26,93.93-5.85,12.43-10.52,25.44-15.66,37.84-4.98,11.95-10.32,22.82-18.47,29.42-5.09,4.14-10.91,6.4-17.08,7.62.19-.6.39-1.19.57-1.78,8.38-27.49,16.82-55.42,17.27-84.61.16-6,.13-12.07-.27-18.28-.73-9.8-1.76-20.44-6.5-29.92-2.99-6.08-8.79-10.95-15.19-13.51-18.56-7.42-38.72,6.35-47.63,17.55-33.84,42.55-50.45,31.94-50.45,37.23s32.18,24.01,56.73,0c22.96-22.45,27.29-45.66,36.52-33.77,17.08,22.01-53.85,224.27-102.69,295.06-5.88,8.52-.1,20.84,9.14,25.77,9.76,5.21,21.83,1.39,26.96-8.52,10.07-19.72,19.68-40.62,28.54-60.88,15.13-34.94,29.12-70.21,41.19-106.36.64-1.93,2.59-3.07,4.55-2.67,10.08,2.07,20.03,5.91,27.15,12.72,27.95,27.05-23.89,107.26,17.47,155.6,11.6,13.52,29.3,20.83,45.91,23.97,8.33,1.74,16.95,2.12,25.37.7,16.7-2.61,32.35-12.05,41.82-25.72,4.28-6.64,7.95-13.5,9.33-23.6.54-3.93-3.61-3.72-5.43-.73-8.98,14.79-35.97,28.58-60.57,23.71-20.53-4.06-42.94-18.33-41.78-49.29-.04-38.64,25.04-103.16-18.96-126.04-.02,0-.04-.02-.06-.03-2.57-1.26-3.1-4.69-1.01-6.66,2.42-2.29,4.74-4.86,6.93-7.72,16.66-22.17,24.79-48.56,39.67-71.46,22.89-38.24,59.66-60.52,100.49-72.51,15.23-4.47,34.2-5.86,41.22-6,8.42-.16,5.79-3.35,1.45-5.25"/>
  <path class="cls-3" d="M538.07,137.91c-4.94-.52-9.44,1.35-13.46,4.71-1.34,1.12-3.35.05-3.21-1.71,0-.03,0-.07,0-.1.55-7.07-18.34-7.11-19.95,0-5.5,24.15-13.03,60.1-15.02,69.67-.26,1.25.68,2.41,1.93,2.41h17.05c.93,0,1.74-.66,1.93-1.59l9.61-46.07c.01-.06.03-.13.05-.19,1.17-4.02,2.72-7.29,4.66-9.8,1.95-2.53,4.2-3.79,6.74-3.79,3.52,0,5.27,2.53,5.27,7.59,0,2.08-.34,4.81-1.03,8.18-.68,3.37-1.42,6.79-2.2,10.27-.2.7-.56,2.28-1.1,4.76-.54,2.48-1.05,5.04-1.54,7.66-.49,2.63-.73,4.99-.73,7.07,0,4.86,1.17,8.88,3.52,12.05,2.34,3.18,6.1,4.76,11.28,4.76,4.2,0,7.79-1.29,10.77-3.87,2.98-2.58,8.53-11.68,5.35-11.46-.93.06-4.55,5.76-8.22,5.64-4.49-.15-2.48-9.01-2.48-11,0-1.69.32-3.99.95-6.92.63-2.92,1.34-5.93,2.12-9,.29-1.15.55-2.25.81-3.31,6.01-23.91-1.53-34.75-13.11-35.97"/>
  <path class="cls-3" d="M360.43,273.43c16.28-23.02,50.35-23.71,75.72-22.98,26.24.87,52.79,5.46,78.6,6.81,8.32.35,16.89.4,24.89-1.58,8.03-1.81,14.62-6.65,17.24-14.88.23-.77,1.05-1.2,1.8-.93.62.22.99.85.92,1.49-.54,10.2-8.54,18.35-17.6,21.64-17.63,6.5-36.09,5.04-54.15,3.92-17.54-1.39-34.92-3.74-52.36-5.21-16.96-1.23-34.31-2.26-50.95,1.82-8.11,2.05-15.81,5.7-21.99,11.72-1.07,1.15-3.12-.36-2.13-1.81"/>
  <path class="cls-2" d="M117.17,65.9c-56.25,96.51-90.02,17.53-94.98,47.54-8.11,49.03,74.89,41.53,94.98-47.54"/>
  <path class="cls-2" d="M119.27,69.05c-18.44,78.99-64.43,70.38-54.12,93.15,17.76,39.24,47.27-29.29,54.12-93.15"/>
  <path class="cls-2" d="M100.05,297.32c-13.44,49.15-6.1,103.56-30.14,104.1-27.59.62,15.92-66.58,30.14-104.1"/>
  <path class="cls-2" d="M102.58,300.1c2.54,34.19,20.87,65.88,4.21,72.89-19.12,8.04-5.03-45.69-4.21-72.89"/>
  <path class="cls-2" d="M218.33,127.63c17.47-58.9,118.37-98.54,121.99-80.66,5.71,28.23-74.24,37.23-121.99,80.66"/>
  <path class="cls-2" d="M222.12,132.45c21.22-17.42,75.01-48.43,75.75-31.22.98,22.88-27,15.25-75.75,31.22"/>
  <path class="cls-2" d="M263.78,399.65c46.05-22.15,31.26-54.83,50.8-42.29,17.16,11.01-30.58,44.06-50.8,42.29"/>
  <path class="cls-2" d="M266.22,402.52c43.67-7.45,44.62-31.17,55.43-24.05,10.93,7.2-1.58,25.63-55.43,24.05"/>
  <path class="cls-2" d="M485.06,349.37c30.06-10.71,16.77-33.57,25.45-37.12,20.43-8.33,4.96,31.63-25.45,37.12"/>
  <path class="cls-2" d="M487.47,351.03c32.5-10.56,30.98-30.01,40.34-29.71,13.19.42-5.71,25.72-40.34,29.71"/>
  <path class="cls-2" d="M548.9,201.35c.79-16.46,12.85-45.18,19.49-42.03,10.99,5.22-8.67,13.76-19.49,42.03"/>
  <path class="cls-2" d="M550.93,201.35c7.36-11.96,18.2-32.12,23.83-27.62,6.2,4.95-6.37,7.38-23.83,27.62"/>
  <rect class="cls-1" x="15.01" y="21.39" width="583.9" height="381.23"/>
</svg>